Coordinates
version=1
nRows=16
nColumns=36
inDegrees=yes

Units are S.I. units (second, meters, Newtons, ...)
If the header above contains a line with 'inDegrees', this indicates whether rotational values are in degrees (yes) or radians (no).

endheader
time	pelvis_tilt	pelvis_list	pelvis_rotation	pelvis_tx	pelvis_ty	pelvis_tz	hip_flexion_r	hip_adduction_r	hip_rotation_r	knee_angle_r	knee_angle_r_beta	ankle_angle_r	subtalar_angle_r	mtp_angle_r	hip_flexion_l	hip_adduction_l	hip_rotation_l	knee_angle_l	knee_angle_l_beta	ankle_angle_l	subtalar_angle_l	mtp_angle_l	lumbar_extension	lumbar_bending	lumbar_rotation	arm_flex_r	arm_add_r	arm_rot_r	elbow_flex_r	pro_sup_r	arm_flex_l	arm_add_l	arm_rot_l	elbow_flex_l	pro_sup_l
     12.70000000	    -14.46605340	      2.62334326	     -0.94732940	      0.39956728	      0.92375595	      0.11039407	     14.18884036	     -2.47198488	      2.21843343	      1.00840212	      0.01759994	      2.95219280	    -16.78336696	     -7.49999987	     16.54119551	     -1.33305305	     -0.85342052	      4.14529663	      0.07234907	      4.82895824	    -11.91769853	     -7.49999987	      9.19011332	      0.06993300	      3.16064382	     56.29672577	      9.90853943	     66.34050062	    126.81060499	     93.03455017	     46.62650940	     14.24063512	     66.27004212	    124.75304413	     80.37193995
     12.71666670	    -14.43262856	      2.66363604	     -0.87907247	      0.40080914	      0.92622586	      0.11022032	     14.02954595	     -2.52091692	      2.14334156	      0.89911766	      0.01569256	      3.21731067	    -16.23775512	     -7.49999987	     16.33304935	     -1.26344861	     -0.66910085	      3.78569912	      0.06607291	      4.85839782	    -11.61183556	     -7.49999987	      9.30101945	      0.07687358	      3.27887753	     55.78401347	      9.79482159	     66.52410545	    126.86181349	     93.40663740	     46.02176389	     14.35155555	     66.86891967	    124.81331970	     80.50433856
     12.73333330	    -14.42293276	      2.72205046	     -0.90843490	      0.40110014	      0.92520610	      0.11052900	     13.93264997	     -2.57057837	      2.23318721	      0.81160372	      0.01416516	      3.35282326	    -15.96638446	     -7.49999987	     16.15902788	     -1.21559418	     -0.55797348	      3.50123875	      0.06110814	      4.85533988	    -11.51915854	     -7.49999987	      9.52535266	      0.06919796	      3.43700006	     55.23574629	      9.73741423	     66.57253876	    126.76089345	     93.41103521	     45.53780209	     14.34190132	     67.24471010	    124.80751086	     80.52946523
     12.75000000	    -14.45531506	      2.72555318	     -0.92270202	      0.40250243	      0.92384966	      0.11082624	     13.85933411	     -2.56139309	      2.37330995	      0.75423767	      0.01316393	      3.29541884	    -16.05398819	     -7.49999987	     16.01903211	     -1.23461789	     -0.46715912	      3.27820491	      0.05721547	      4.71012688	    -11.55558682	     -7.49999987	      9.80104601	      0.11298264	      3.63469035	     54.68673810	      9.43825018	     66.26208260	    126.44162622	     92.79083662	     45.14287596	     14.37103344	     67.66300083	    124.95786910	     80.02806926
     12.76666670	    -14.37426608	      2.74453609	     -1.02411313	      0.40360829	      0.92552821	      0.11070565	     13.60223857	     -2.55454064	      2.54007387	      0.73600156	      0.01284565	      3.33361854	    -16.16288892	     -7.49999987	     15.74531855	     -1.25065671	     -0.44894573	      3.05486288	      0.05331742	      4.92040191	    -11.16306531	     -7.49999987	     10.02416716	      0.13450869	      3.71655432	     54.10458624	      9.19242707	     66.22025098	    126.32297595	     89.35240791	     44.73587194	     14.40848090	     68.20414156	    125.17146880	     77.87172005
     12.78333330	    -14.29588969	      2.77605527	     -1.16307418	      0.40293431	      0.92509820	      0.11129278	     13.43545171	     -2.54333001	      2.44575880	      0.73907448	      0.01289928	      3.73387111	    -15.64593890	     -7.49999987	     15.51957277	     -1.25876161	     -0.55510508	      2.88291815	      0.05031641	      5.16799953	    -10.82149767	     -7.49999987	     10.13080712	      0.12926144	      3.82998541	     53.79448646	      9.10165257	     65.74868790	    125.95879481	     93.21186594	     44.52312958	     14.44101441	     68.40087594	    125.24982807	     80.33601065
     12.80000000	    -14.27184034	      2.80803503	     -1.32009078	      0.40201604	      0.92271387	      0.11059873	     13.40611729	     -2.55711835	      2.59870734	      0.76742649	      0.01339412	      3.76841046	    -15.74811226	     -7.49999987	     15.37661700	     -1.24120889	     -0.64755503	      2.71307910	      0.04735216	      5.22746997	    -10.79160678	     -7.49999987	     10.33073633	      0.19275038	      3.76994949	     53.61592683	      9.07108699	     65.69502404	    125.94858604	     93.31929453	     44.34080430	     14.33780307	     68.40812753	    125.26042573	     80.23817722
     12.81666670	    -14.21878307	      2.84557136	     -1.47737439	      0.40381218	      0.92354667	      0.11065859	     13.32857602	     -2.57847517	      2.71586798	      0.78856676	      0.01376309	      3.82410243	    -15.71347267	     -7.49999987	     15.18213221	     -1.23231363	     -0.63505535	      2.56483651	      0.04476484	      5.16195619	    -10.83956067	     -7.49999987	     10.54191546	      0.22626658	      3.64884457	     53.44786559	      9.09513965	     65.68382636	    125.90955673	     93.52266274	     44.06018387	     14.25694173	     68.47564236	    125.34303317	     80.18499950
     12.83333330	    -14.26341092	      2.88720130	     -1.66520218	      0.40296853	      0.92200471	      0.11050807	     13.40933706	     -2.58714598	      2.90471309	      0.82349757	      0.01437274	      3.83414286	    -15.94656357	     -7.49999987	     15.15842324	     -1.21561311	     -0.70107988	      2.47401819	      0.04317976	      5.32373628	    -10.85578842	     -7.49999987	     10.74107199	      0.28963538	      3.49832570	     53.42181376	      9.15202598	     65.69814145	    125.91063431	     93.54276658	     43.94021609	     14.13408162	     68.29489479	    125.21956093	     80.21301280
     12.85000000	    -14.25261743	      2.91839483	     -1.76394398	      0.40513711	      0.92427880	      0.11078821	     13.39963181	     -2.60846865	      3.02101904	      0.82514791	      0.01440155	      3.87201530	    -15.89230470	     -7.49999987	     15.02302377	     -1.20817450	     -0.70817260	      2.37395210	      0.04143328	      5.21785747	    -10.95682412	     -7.49999987	     10.90134091	      0.28930094	      3.29482726	     53.28520250	      9.23626645	     65.82266352	    125.89089857	     93.85655926	     43.64825178	     14.00046550	     68.38663203	    125.27686326	     80.27449125
     12.86666670	    -14.26357441	      2.93946307	     -1.94263400	      0.40586227	      0.92570997	      0.11122728	     13.42680369	     -2.60450106	      3.09667107	      0.79844629	      0.01393552	      3.93462834	    -15.80922071	     -7.49999987	     14.89683073	     -1.23889728	     -0.83694080	      2.32242427	      0.04053395	      5.22140072	    -10.88559260	     -7.49999987	     11.03504758	      0.33246637	      3.22732417	     53.12144603	      9.33022846	     66.02625449	    125.74645936	     93.89884027	     43.35439708	     13.94691202	     68.54227643	    125.30542243	     80.23637273
     12.88333330	    -14.19869975	      2.93579095	     -2.17228274	      0.40482675	      0.92539393	      0.11162012	     13.44539375	     -2.53076594	      3.48224178	      0.75346399	      0.01315043	      3.99470652	    -15.81524254	     -7.49999987	     14.66582275	     -1.29944891	     -0.97129077	      2.20934031	      0.03856026	      5.37338461	    -10.71416111	     -7.49999987	     11.05287330	      0.34481611	      2.91145110	     53.10753214	      9.52469363	     66.19771751	    125.53571605	     93.89993499	     43.30460738	     13.32479828	     68.08749247	    125.11255656	     80.05039355
     12.90000000	    -14.09746821	      2.84959211	     -2.14420854	      0.40727733	      0.92688148	      0.11090244	     13.32789303	     -2.44149596	      3.35706327	      0.67777452	      0.01182940	      4.12577993	    -15.32737941	     -7.49999987	     14.41074773	     -1.37568111	     -0.93312454	      2.08742424	      0.03643243	      5.36274121	    -10.63833208	     -7.49999987	     11.10980112	      0.47264713	      2.50521046	     52.96804445	      9.58166406	     66.47957356	    125.33319723	     94.40147962	     43.03673415	     12.87423853	     67.75847461	    124.98222222	     80.36307310
     12.91666670	    -14.15230337	      2.79972715	     -2.18151614	      0.40653631	      0.92599829	      0.11155662	     13.41909774	     -2.36184561	      3.46533402	      0.62153976	      0.01084792	      4.24617985	    -15.11077892	     -7.49999987	     14.37862886	     -1.43566769	     -0.92944152	      1.98137624	      0.03458154	      5.47478245	    -10.58708538	     -7.49999987	     11.18103438	      0.58203992	      2.28579061	     53.04939027	      9.65217518	     66.50634285	    124.99281612	     94.58544703	     42.99713034	     12.42354698	     67.11352421	    124.57420160	     80.36991916
     12.93333330	    -14.12815279	      2.71345477	     -2.09347784	      0.40523466	      0.92411137	      0.11092027	     13.40639958	     -2.28527398	      3.50625637	      0.58357008	      0.01018522	      4.39579161	    -14.98683384	     -7.49999987	     14.35414455	     -1.49290921	     -0.87083517	      1.97448824	      0.03446132	      5.59681867	    -10.56946009	     -7.49999987	     11.12299519	      0.70353744	      2.00493589	     53.24769762	      9.60499379	     66.43505578	    124.92665043	     94.73489399	     43.09262927	     12.02820763	     66.13009155	    124.17370743	     80.47857657
     12.95000000	    -14.05861631	      2.68069494	     -2.02144776	      0.40518481	      0.92361833	      0.11032993	     13.30083078	     -2.30531783	      3.44625228	      0.57360915	      0.01001137	      4.42059302	    -14.99894467	     -7.49999987	     14.33229203	     -1.49576575	     -0.92452694	      2.02426979	      0.03533017	      5.74326147	    -10.44132827	     -7.49999987	     10.93717885	      0.78834961	      1.83750067	     53.48289807	      9.53224699	     66.15297840	    124.66867400	     94.74391336	     43.22724523	     11.45988520	     64.62854163	    123.38716395	     80.38981605
